<svg width="197" height="12" viewBox="0 0 197 12" fill="none" xmlns="http://www.w3.org/2000/svg">
<path d="M6.5639 9H0.97406V8.2207L3.92719 4.93945C4.36469 4.44336 4.66547 4.04102 4.82953 3.73242C4.9975 3.41992 5.08148 3.09766 5.08148 2.76562C5.08148 2.32031 4.94672 1.95508 4.67719 1.66992C4.40765 1.38477 4.04828 1.24219 3.59906 1.24219C3.06 1.24219 2.64008 1.39648 2.33929 1.70508C2.04242 2.00977 1.89398 2.43555 1.89398 2.98242H0.809998C0.809998 2.19727 1.06195 1.5625 1.56586 1.07812C2.07367 0.59375 2.7514 0.351562 3.59906 0.351562C4.39203 0.351562 5.01898 0.560547 5.47992 0.978516C5.94086 1.39258 6.17133 1.94531 6.17133 2.63672C6.17133 3.47656 5.63617 4.47656 4.56586 5.63672L2.2807 8.11523H6.5639V9ZM13.422 5.36133C13.422 6.63086 13.2052 7.57422 12.7716 8.19141C12.338 8.80859 11.6602 9.11719 10.7384 9.11719C9.8282 9.11719 9.15437 8.81641 8.71687 8.21484C8.27937 7.60938 8.05281 6.70703 8.03719 5.50781V4.06055C8.03719 2.80664 8.25398 1.875 8.68758 1.26562C9.12117 0.65625 9.80086 0.351562 10.7266 0.351562C11.6446 0.351562 12.3204 0.646484 12.754 1.23633C13.1876 1.82227 13.4102 2.72852 13.422 3.95508V5.36133ZM12.338 3.87891C12.338 2.96094 12.2091 2.29297 11.9512 1.875C11.6934 1.45312 11.2852 1.24219 10.7266 1.24219C10.172 1.24219 9.76765 1.45117 9.51375 1.86914C9.25984 2.28711 9.12898 2.92969 9.12117 3.79688V5.53125C9.12117 6.45312 9.25398 7.13477 9.51961 7.57617C9.78914 8.01367 10.1954 8.23242 10.7384 8.23242C11.2735 8.23242 11.67 8.02539 11.9278 7.61133C12.1895 7.19727 12.3262 6.54492 12.338 5.6543V3.87891ZM20.7605 9H15.1706V8.2207L18.1237 4.93945C18.5612 4.44336 18.862 4.04102 19.0261 3.73242C19.1941 3.41992 19.278 3.09766 19.278 2.76562C19.278 2.32031 19.1433 1.95508 18.8737 1.66992C18.6042 1.38477 18.2448 1.24219 17.7956 1.24219C17.2566 1.24219 16.8366 1.39648 16.5359 1.70508C16.239 2.00977 16.0905 2.43555 16.0905 2.98242H15.0066C15.0066 2.19727 15.2585 1.5625 15.7624 1.07812C16.2702 0.59375 16.948 0.351562 17.7956 0.351562C18.5886 0.351562 19.2155 0.560547 19.6765 0.978516C20.1374 1.39258 20.3679 1.94531 20.3679 2.63672C20.3679 3.47656 19.8327 4.47656 18.7624 5.63672L16.4773 8.11523H20.7605V9ZM27.6185 5.36133C27.6185 6.63086 27.4017 7.57422 26.9681 8.19141C26.5345 8.80859 25.8568 9.11719 24.9349 9.11719C24.0248 9.11719 23.3509 8.81641 22.9134 8.21484C22.4759 7.60938 22.2494 6.70703 22.2337 5.50781V4.06055C22.2337 2.80664 22.4505 1.875 22.8841 1.26562C23.3177 0.65625 23.9974 0.351562 24.9232 0.351562C25.8412 0.351562 26.517 0.646484 26.9505 1.23633C27.3841 1.82227 27.6068 2.72852 27.6185 3.95508V5.36133ZM26.5345 3.87891C26.5345 2.96094 26.4056 2.29297 26.1478 1.875C25.89 1.45312 25.4818 1.24219 24.9232 1.24219C24.3685 1.24219 23.9642 1.45117 23.7103 1.86914C23.4564 2.28711 23.3255 2.92969 23.3177 3.79688V5.53125C23.3177 6.45312 23.4505 7.13477 23.7162 7.57617C23.9857 8.01367 24.392 8.23242 24.9349 8.23242C25.4701 8.23242 25.8666 8.02539 26.1244 7.61133C26.3861 7.19727 26.5228 6.54492 26.5345 5.6543V3.87891ZM33.8932 10.582H33.0202V0.46875H33.8932V10.582ZM39.6113 9V0.46875H42.0195C42.7616 0.46875 43.4179 0.632812 43.9882 0.960938C44.5585 1.28906 44.998 1.75586 45.3066 2.36133C45.6191 2.9668 45.7773 3.66211 45.7812 4.44727V4.99219C45.7812 5.79688 45.6249 6.50195 45.3124 7.10742C45.0038 7.71289 44.5605 8.17773 43.9823 8.50195C43.4081 8.82617 42.7382 8.99219 41.9726 9H39.6113ZM40.7363 1.39453V8.08008H41.9198C42.787 8.08008 43.4609 7.81055 43.9413 7.27148C44.4257 6.73242 44.6679 5.96484 44.6679 4.96875V4.4707C44.6679 3.50195 44.4394 2.75 43.9823 2.21484C43.5292 1.67578 42.8847 1.40234 42.0488 1.39453H40.7363ZM50.3072 9.11719C49.4478 9.11719 48.7486 8.83594 48.2095 8.27344C47.6705 7.70703 47.4009 6.95117 47.4009 6.00586V5.80664C47.4009 5.17773 47.5201 4.61719 47.7584 4.125C48.0005 3.62891 48.3365 3.24219 48.7662 2.96484C49.1998 2.68359 49.6685 2.54297 50.1724 2.54297C50.9966 2.54297 51.6373 2.81445 52.0943 3.35742C52.5513 3.90039 52.7798 4.67773 52.7798 5.68945V6.14062H48.4849C48.5005 6.76562 48.6822 7.27148 49.0298 7.6582C49.3814 8.04102 49.8267 8.23242 50.3658 8.23242C50.7486 8.23242 51.0728 8.1543 51.3384 7.99805C51.6041 7.8418 51.8365 7.63477 52.0357 7.37695L52.6978 7.89258C52.1666 8.70898 51.3697 9.11719 50.3072 9.11719ZM50.1724 3.43359C49.7349 3.43359 49.3677 3.59375 49.0709 3.91406C48.774 4.23047 48.5904 4.67578 48.5201 5.25H51.6959V5.16797C51.6646 4.61719 51.5162 4.19141 51.2505 3.89062C50.9849 3.58594 50.6255 3.43359 50.1724 3.43359ZM56.4094 7.5293L57.9797 2.66016H59.0871L56.8137 9H55.9875L53.6906 2.66016H54.798L56.4094 7.5293ZM63.0389 9.11719C62.1795 9.11719 61.4803 8.83594 60.9412 8.27344C60.4022 7.70703 60.1327 6.95117 60.1327 6.00586V5.80664C60.1327 5.17773 60.2518 4.61719 60.4901 4.125C60.7323 3.62891 61.0682 3.24219 61.4979 2.96484C61.9315 2.68359 62.4002 2.54297 62.9041 2.54297C63.7284 2.54297 64.369 2.81445 64.826 3.35742C65.283 3.90039 65.5116 4.67773 65.5116 5.68945V6.14062H61.2166C61.2323 6.76562 61.4139 7.27148 61.7616 7.6582C62.1131 8.04102 62.5584 8.23242 63.0975 8.23242C63.4803 8.23242 63.8045 8.1543 64.0702 7.99805C64.3358 7.8418 64.5682 7.63477 64.7674 7.37695L65.4295 7.89258C64.8983 8.70898 64.1014 9.11719 63.0389 9.11719ZM62.9041 3.43359C62.4666 3.43359 62.0994 3.59375 61.8026 3.91406C61.5057 4.23047 61.3221 4.67578 61.2518 5.25H64.4276V5.16797C64.3963 4.61719 64.2479 4.19141 63.9823 3.89062C63.7166 3.58594 63.3573 3.43359 62.9041 3.43359ZM68.3091 9H67.2251V0H68.3091V9ZM70.1222 5.77148C70.1222 5.15039 70.2433 4.5918 70.4855 4.0957C70.7316 3.59961 71.0714 3.2168 71.505 2.94727C71.9425 2.67773 72.4405 2.54297 72.9991 2.54297C73.8624 2.54297 74.5597 2.8418 75.0909 3.43945C75.6261 4.03711 75.8937 4.83203 75.8937 5.82422V5.90039C75.8937 6.51758 75.7745 7.07227 75.5362 7.56445C75.3019 8.05273 74.964 8.43359 74.5226 8.70703C74.0851 8.98047 73.5812 9.11719 73.0109 9.11719C72.1515 9.11719 71.4542 8.81836 70.9191 8.2207C70.3878 7.62305 70.1222 6.83203 70.1222 5.84766V5.77148ZM71.212 5.90039C71.212 6.60352 71.3741 7.16797 71.6984 7.59375C72.0265 8.01953 72.464 8.23242 73.0109 8.23242C73.5616 8.23242 73.9991 8.01758 74.3234 7.58789C74.6476 7.1543 74.8097 6.54883 74.8097 5.77148C74.8097 5.07617 74.6437 4.51367 74.3116 4.08398C73.9835 3.65039 73.546 3.43359 72.9991 3.43359C72.464 3.43359 72.0323 3.64648 71.7042 4.07227C71.3761 4.49805 71.212 5.10742 71.212 5.90039ZM82.9685 5.90039C82.9685 6.86523 82.7478 7.64258 82.3064 8.23242C81.865 8.82227 81.2673 9.11719 80.5134 9.11719C79.7439 9.11719 79.1384 8.87305 78.697 8.38477V11.4375H77.613V2.66016H78.6033L78.656 3.36328C79.0974 2.81641 79.7107 2.54297 80.4958 2.54297C81.2576 2.54297 81.8591 2.83008 82.3005 3.4043C82.7458 3.97852 82.9685 4.77734 82.9685 5.80078V5.90039ZM81.8845 5.77734C81.8845 5.0625 81.7322 4.49805 81.4275 4.08398C81.1228 3.66992 80.7048 3.46289 80.1736 3.46289C79.5173 3.46289 79.0251 3.75391 78.697 4.33594V7.36523C79.0212 7.94336 79.5173 8.23242 80.1853 8.23242C80.7048 8.23242 81.1169 8.02734 81.4216 7.61719C81.7302 7.20312 81.8845 6.58984 81.8845 5.77734ZM87.3422 9.11719C86.4828 9.11719 85.7836 8.83594 85.2445 8.27344C84.7055 7.70703 84.4359 6.95117 84.4359 6.00586V5.80664C84.4359 5.17773 84.5551 4.61719 84.7934 4.125C85.0356 3.62891 85.3715 3.24219 85.8012 2.96484C86.2348 2.68359 86.7035 2.54297 87.2074 2.54297C88.0316 2.54297 88.6723 2.81445 89.1293 3.35742C89.5863 3.90039 89.8148 4.67773 89.8148 5.68945V6.14062H85.5199C85.5356 6.76562 85.7172 7.27148 86.0648 7.6582C86.4164 8.04102 86.8617 8.23242 87.4008 8.23242C87.7836 8.23242 88.1078 8.1543 88.3734 7.99805C88.6391 7.8418 88.8715 7.63477 89.0707 7.37695L89.7328 7.89258C89.2016 8.70898 88.4047 9.11719 87.3422 9.11719ZM87.2074 3.43359C86.7699 3.43359 86.4027 3.59375 86.1059 3.91406C85.809 4.23047 85.6254 4.67578 85.5551 5.25H88.7309V5.16797C88.6996 4.61719 88.5512 4.19141 88.2856 3.89062C88.0199 3.58594 87.6606 3.43359 87.2074 3.43359ZM91.1709 5.77734C91.1709 4.80469 91.4014 4.02344 91.8623 3.43359C92.3233 2.83984 92.9268 2.54297 93.6729 2.54297C94.4151 2.54297 95.003 2.79688 95.4366 3.30469V0H96.5205V9H95.5244L95.4717 8.32031C95.0381 8.85156 94.4346 9.11719 93.6612 9.11719C92.9268 9.11719 92.3272 8.81641 91.8623 8.21484C91.4014 7.61328 91.1709 6.82812 91.1709 5.85938V5.77734ZM92.2549 5.90039C92.2549 6.61914 92.4034 7.18164 92.7002 7.58789C92.9971 7.99414 93.4073 8.19727 93.9307 8.19727C94.6182 8.19727 95.1201 7.88867 95.4366 7.27148V4.35938C95.1123 3.76172 94.6143 3.46289 93.9424 3.46289C93.4112 3.46289 92.9971 3.66797 92.7002 4.07812C92.4034 4.48828 92.2549 5.0957 92.2549 5.90039ZM107.272 5.90039C107.272 6.86914 107.049 7.64844 106.604 8.23828C106.159 8.82422 105.561 9.11719 104.811 9.11719C104.01 9.11719 103.391 8.83398 102.953 8.26758L102.901 9H101.905V0H102.989V3.35742C103.426 2.81445 104.03 2.54297 104.799 2.54297C105.569 2.54297 106.172 2.83398 106.61 3.41602C107.051 3.99805 107.272 4.79492 107.272 5.80664V5.90039ZM106.188 5.77734C106.188 5.03906 106.045 4.46875 105.76 4.06641C105.475 3.66406 105.065 3.46289 104.53 3.46289C103.815 3.46289 103.301 3.79492 102.989 4.45898V7.20117C103.321 7.86523 103.838 8.19727 104.541 8.19727C105.061 8.19727 105.465 7.99609 105.754 7.59375C106.043 7.19141 106.188 6.58594 106.188 5.77734ZM111.007 7.41211L112.483 2.66016H113.644L111.095 9.97852C110.7 11.0332 110.073 11.5605 109.214 11.5605L109.009 11.543L108.604 11.4668V10.5879L108.897 10.6113C109.265 10.6113 109.55 10.5371 109.753 10.3887C109.96 10.2402 110.13 9.96875 110.263 9.57422L110.503 8.92969L108.241 2.66016H109.425L111.007 7.41211ZM124.781 7.88086C124.492 8.29492 124.088 8.60547 123.569 8.8125C123.053 9.01562 122.451 9.11719 121.764 9.11719C121.069 9.11719 120.451 8.95508 119.912 8.63086C119.373 8.30273 118.955 7.83789 118.658 7.23633C118.365 6.63477 118.215 5.9375 118.207 5.14453V4.40039C118.207 3.11523 118.506 2.11914 119.104 1.41211C119.705 0.705078 120.549 0.351562 121.635 0.351562C122.526 0.351562 123.242 0.580078 123.785 1.03711C124.328 1.49023 124.66 2.13477 124.781 2.9707H123.656C123.446 1.8418 122.774 1.27734 121.641 1.27734C120.887 1.27734 120.315 1.54297 119.924 2.07422C119.537 2.60156 119.342 3.36719 119.338 4.37109V5.06836C119.338 6.02539 119.557 6.78711 119.994 7.35352C120.432 7.91602 121.024 8.19727 121.77 8.19727C122.192 8.19727 122.561 8.15039 122.877 8.05664C123.194 7.96289 123.455 7.80469 123.662 7.58203V5.66602H121.688V4.75195H124.781V7.88086ZM126.565 5.77148C126.565 5.15039 126.686 4.5918 126.929 4.0957C127.175 3.59961 127.515 3.2168 127.948 2.94727C128.386 2.67773 128.884 2.54297 129.442 2.54297C130.306 2.54297 131.003 2.8418 131.534 3.43945C132.069 4.03711 132.337 4.83203 132.337 5.82422V5.90039C132.337 6.51758 132.218 7.07227 131.979 7.56445C131.745 8.05273 131.407 8.43359 130.966 8.70703C130.528 8.98047 130.024 9.11719 129.454 9.11719C128.595 9.11719 127.897 8.81836 127.362 8.2207C126.831 7.62305 126.565 6.83203 126.565 5.84766V5.77148ZM127.655 5.90039C127.655 6.60352 127.817 7.16797 128.141 7.59375C128.47 8.01953 128.907 8.23242 129.454 8.23242C130.005 8.23242 130.442 8.01758 130.766 7.58789C131.091 7.1543 131.253 6.54883 131.253 5.77148C131.253 5.07617 131.087 4.51367 130.755 4.08398C130.427 3.65039 129.989 3.43359 129.442 3.43359C128.907 3.43359 128.475 3.64648 128.147 4.07227C127.819 4.49805 127.655 5.10742 127.655 5.90039ZM135.433 9H134.308V0.46875H135.433V9ZM143.574 1.39453H140.832V9H139.713V1.39453H136.977V0.46875H143.574V1.39453ZM150.816 5.19727C149.851 4.91992 149.148 4.58008 148.706 4.17773C148.269 3.77148 148.05 3.27148 148.05 2.67773C148.05 2.00586 148.318 1.45117 148.853 1.01367C149.392 0.572266 150.091 0.351562 150.951 0.351562C151.537 0.351562 152.058 0.464844 152.515 0.691406C152.976 0.917969 153.331 1.23047 153.581 1.62891C153.835 2.02734 153.962 2.46289 153.962 2.93555H152.831C152.831 2.41992 152.667 2.01562 152.339 1.72266C152.011 1.42578 151.548 1.27734 150.951 1.27734C150.396 1.27734 149.962 1.40039 149.65 1.64648C149.341 1.88867 149.187 2.22656 149.187 2.66016C149.187 3.00781 149.333 3.30273 149.626 3.54492C149.923 3.7832 150.425 4.00195 151.132 4.20117C151.843 4.40039 152.398 4.62109 152.796 4.86328C153.199 5.10156 153.496 5.38086 153.687 5.70117C153.882 6.02148 153.98 6.39844 153.98 6.83203C153.98 7.52344 153.71 8.07812 153.171 8.49609C152.632 8.91016 151.912 9.11719 151.009 9.11719C150.423 9.11719 149.876 9.00586 149.369 8.7832C148.861 8.55664 148.468 8.24805 148.191 7.85742C147.917 7.4668 147.781 7.02344 147.781 6.52734H148.912C148.912 7.04297 149.101 7.45117 149.48 7.75195C149.863 8.04883 150.372 8.19727 151.009 8.19727C151.603 8.19727 152.058 8.07617 152.374 7.83398C152.691 7.5918 152.849 7.26172 152.849 6.84375C152.849 6.42578 152.703 6.10352 152.41 5.87695C152.117 5.64648 151.585 5.41992 150.816 5.19727ZM157.088 1.125V2.66016H158.272V3.49805H157.088V7.42969C157.088 7.68359 157.141 7.875 157.246 8.00391C157.352 8.12891 157.531 8.19141 157.785 8.19141C157.91 8.19141 158.082 8.16797 158.301 8.12109V9C158.016 9.07812 157.738 9.11719 157.469 9.11719C156.984 9.11719 156.619 8.9707 156.373 8.67773C156.127 8.38477 156.004 7.96875 156.004 7.42969V3.49805H154.85V2.66016H156.004V1.125H157.088ZM163.817 8.37305C163.395 8.86914 162.776 9.11719 161.96 9.11719C161.284 9.11719 160.768 8.92188 160.413 8.53125C160.061 8.13672 159.884 7.55469 159.88 6.78516V2.66016H160.964V6.75586C160.964 7.7168 161.354 8.19727 162.135 8.19727C162.964 8.19727 163.514 7.88867 163.788 7.27148V2.66016H164.872V9H163.841L163.817 8.37305ZM166.62 5.77734C166.62 4.80469 166.851 4.02344 167.312 3.43359C167.773 2.83984 168.376 2.54297 169.122 2.54297C169.865 2.54297 170.452 2.79688 170.886 3.30469V0H171.97V9H170.974L170.921 8.32031C170.488 8.85156 169.884 9.11719 169.111 9.11719C168.376 9.11719 167.777 8.81641 167.312 8.21484C166.851 7.61328 166.62 6.82812 166.62 5.85938V5.77734ZM167.704 5.90039C167.704 6.61914 167.853 7.18164 168.15 7.58789C168.447 7.99414 168.857 8.19727 169.38 8.19727C170.068 8.19727 170.57 7.88867 170.886 7.27148V4.35938C170.562 3.76172 170.064 3.46289 169.392 3.46289C168.861 3.46289 168.447 3.66797 168.15 4.07812C167.853 4.48828 167.704 5.0957 167.704 5.90039ZM176.648 9.11719C175.789 9.11719 175.09 8.83594 174.551 8.27344C174.012 7.70703 173.742 6.95117 173.742 6.00586V5.80664C173.742 5.17773 173.861 4.61719 174.1 4.125C174.342 3.62891 174.678 3.24219 175.107 2.96484C175.541 2.68359 176.01 2.54297 176.514 2.54297C177.338 2.54297 177.979 2.81445 178.436 3.35742C178.893 3.90039 179.121 4.67773 179.121 5.68945V6.14062H174.826C174.842 6.76562 175.023 7.27148 175.371 7.6582C175.723 8.04102 176.168 8.23242 176.707 8.23242C177.09 8.23242 177.414 8.1543 177.68 7.99805C177.945 7.8418 178.178 7.63477 178.377 7.37695L179.039 7.89258C178.508 8.70898 177.711 9.11719 176.648 9.11719ZM176.514 3.43359C176.076 3.43359 175.709 3.59375 175.412 3.91406C175.115 4.23047 174.932 4.67578 174.861 5.25H178.037V5.16797C178.006 4.61719 177.857 4.19141 177.592 3.89062C177.326 3.58594 176.967 3.43359 176.514 3.43359ZM181.766 2.66016L181.801 3.45703C182.286 2.84766 182.919 2.54297 183.7 2.54297C185.04 2.54297 185.715 3.29883 185.727 4.81055V9H184.643V4.80469C184.639 4.34766 184.534 4.00977 184.327 3.79102C184.124 3.57227 183.805 3.46289 183.372 3.46289C183.02 3.46289 182.712 3.55664 182.446 3.74414C182.18 3.93164 181.973 4.17773 181.825 4.48242V9H180.741V2.66016H181.766ZM189.193 1.125V2.66016H190.376V3.49805H189.193V7.42969C189.193 7.68359 189.245 7.875 189.351 8.00391C189.456 8.12891 189.636 8.19141 189.89 8.19141C190.015 8.19141 190.187 8.16797 190.406 8.12109V9C190.12 9.07812 189.843 9.11719 189.574 9.11719C189.089 9.11719 188.724 8.9707 188.478 8.67773C188.232 8.38477 188.109 7.96875 188.109 7.42969V3.49805H186.954V2.66016H188.109V1.125H189.193ZM195.699 7.31836C195.699 7.02539 195.588 6.79883 195.365 6.63867C195.146 6.47461 194.762 6.33398 194.211 6.2168C193.664 6.09961 193.228 5.95898 192.904 5.79492C192.584 5.63086 192.346 5.43555 192.189 5.20898C192.037 4.98242 191.961 4.71289 191.961 4.40039C191.961 3.88086 192.18 3.44141 192.617 3.08203C193.059 2.72266 193.621 2.54297 194.305 2.54297C195.023 2.54297 195.605 2.72852 196.051 3.09961C196.5 3.4707 196.725 3.94531 196.725 4.52344H195.635C195.635 4.22656 195.508 3.9707 195.254 3.75586C195.004 3.54102 194.687 3.43359 194.305 3.43359C193.91 3.43359 193.601 3.51953 193.379 3.69141C193.156 3.86328 193.045 4.08789 193.045 4.36523C193.045 4.62695 193.148 4.82422 193.355 4.95703C193.562 5.08984 193.935 5.2168 194.475 5.33789C195.018 5.45898 195.457 5.60352 195.793 5.77148C196.129 5.93945 196.377 6.14258 196.537 6.38086C196.701 6.61523 196.783 6.90234 196.783 7.24219C196.783 7.80859 196.557 8.26367 196.103 8.60742C195.65 8.94727 195.062 9.11719 194.34 9.11719C193.832 9.11719 193.383 9.02734 192.992 8.84766C192.601 8.66797 192.295 8.41797 192.072 8.09766C191.853 7.77344 191.744 7.42383 191.744 7.04883H192.828C192.848 7.41211 192.992 7.70117 193.262 7.91602C193.535 8.12695 193.894 8.23242 194.34 8.23242C194.75 8.23242 195.078 8.15039 195.324 7.98633C195.574 7.81836 195.699 7.5957 195.699 7.31836Z" fill="#212121" fill-opacity="0.4"/>
</svg>
